<svg width="1280" height="2884" viewBox="0 0 1280 2884" fill="none" xmlns="http://www.w3.org/2000/svg">
<g clip-path="url(#clip0)">
<rect width="1280" height="2884" fill="white"/>
<path d="M206 352.712C206 356.373 203.313 359.423 200.09 359.423C196.687 359.627 194 356.576 194 352.712C194 349.051 196.687 346 199.91 346C203.313 346 206 349.051 206 352.712ZM199.91 348.441C197.761 348.441 196.149 350.271 195.97 352.712C195.97 355.152 197.761 357.186 199.91 357.186C202.06 357.186 203.672 355.356 203.672 352.915C203.672 350.474 202.06 348.441 199.91 348.441Z" fill="#F2DEDE"/>
<rect x="658" y="661.652" width="313.559" height="918.398" transform="rotate(-58.9572 658 661.652)" fill="#A5E5D9"/>
<rect x="871.205" y="734.508" width="22.2414" height="542.135" transform="rotate(-117.311 871.205 734.508)" fill="#F8D513"/>
<path d="M183 328.249C183 329.67 182.289 330.887 181.044 331.293C179.444 331.902 177.844 332.308 176.244 332.714C175.533 332.917 175.356 333.323 175.178 334.134C174.644 336.975 174.289 340.019 173.756 342.86C173.4 344.687 172.511 345.701 171.089 345.701C169.667 345.701 168.778 344.687 168.422 342.86C167.889 339.816 167.356 336.975 166.822 333.931C166.644 333.323 166.467 332.917 165.933 332.714C164.333 332.308 162.733 331.699 161.133 331.293C159.711 330.887 159 329.67 159 328.249C159 326.829 159.889 325.611 161.133 325.205C162.733 324.799 164.156 324.191 165.756 323.785C166.467 323.582 166.644 323.176 166.822 322.567C167.356 319.523 167.889 316.479 168.422 313.638C168.778 312.015 169.667 311 171.089 311C172.511 311 173.4 311.812 173.756 313.638C174.289 316.682 174.822 319.726 175.356 322.77C175.533 323.582 175.711 323.785 176.422 323.988C178.022 324.394 179.444 324.799 181.044 325.408C182.111 325.611 183 326.626 183 328.249ZM181.222 328.249V328.046C178.911 327.438 176.6 326.626 174.289 326.017C173.578 325.814 173.222 325.408 173.222 324.596C172.867 322.567 172.511 320.741 172.333 318.711C171.8 316.682 171.444 314.45 171.089 312.421C170.2 316.276 169.489 320.335 168.956 324.191C168.778 325.408 168.422 325.814 167.356 326.22C165.044 326.829 162.911 327.438 160.778 328.249C162.911 329.061 165.044 329.873 167.178 330.279C168.422 330.482 168.956 331.09 169.133 332.511C169.667 336.367 170.378 340.222 171.089 344.281C171.267 343.672 171.444 343.469 171.444 343.266C172.156 339.411 172.867 335.758 173.4 331.902C173.578 330.887 173.933 330.684 174.644 330.482C176.6 329.67 178.911 329.061 181.222 328.249Z" fill="#F2DEDE"/>
<rect x="-64.8794" y="1645.78" width="186.445" height="546.087" transform="rotate(-107.84 -64.8794 1645.78)" fill="#F2DEDE"/>
<rect x="324.836" y="1650.23" width="14.2912" height="348.347" transform="rotate(139.335 324.836 1650.23)" fill="#004A87"/>
<path d="M1083 1624.99C1083 1629.35 1079.42 1632.99 1075.12 1632.99C1070.58 1633.23 1067 1629.6 1067 1624.99C1067 1620.63 1070.58 1617 1074.88 1617C1079.42 1617 1083 1620.63 1083 1624.99ZM1074.88 1619.91C1072.01 1619.91 1069.87 1622.09 1069.63 1624.99C1069.63 1627.9 1072.01 1630.32 1074.88 1630.32C1077.75 1630.32 1079.9 1628.14 1079.9 1625.24C1079.9 1622.33 1077.75 1619.91 1074.88 1619.91Z" fill="#F2DEDE"/>
<path d="M1124 1653.38C1124 1655.06 1123.05 1656.5 1121.39 1656.98C1119.26 1657.7 1117.13 1658.18 1114.99 1658.65C1114.04 1658.89 1113.81 1659.37 1113.57 1660.33C1112.86 1663.69 1112.39 1667.29 1111.67 1670.64C1111.2 1672.8 1110.01 1674 1108.12 1674C1106.22 1674 1105.04 1672.8 1104.56 1670.64C1103.85 1667.05 1103.14 1663.69 1102.43 1660.09C1102.19 1659.37 1101.96 1658.89 1101.24 1658.65C1099.11 1658.18 1096.98 1657.46 1094.84 1656.98C1092.95 1656.5 1092 1655.06 1092 1653.38C1092 1651.7 1093.19 1650.26 1094.84 1649.78C1096.98 1649.3 1098.87 1648.58 1101.01 1648.11C1101.96 1647.87 1102.19 1647.39 1102.43 1646.67C1103.14 1643.07 1103.85 1639.47 1104.56 1636.12C1105.04 1634.2 1106.22 1633 1108.12 1633C1110.01 1633 1111.2 1633.96 1111.67 1636.12C1112.39 1639.71 1113.1 1643.31 1113.81 1646.91C1114.04 1647.87 1114.28 1648.11 1115.23 1648.35C1117.36 1648.82 1119.26 1649.3 1121.39 1650.02C1122.81 1650.26 1124 1651.46 1124 1653.38ZM1121.63 1653.38V1653.14C1118.55 1652.42 1115.47 1651.46 1112.39 1650.74C1111.44 1650.5 1110.96 1650.02 1110.96 1649.06C1110.49 1646.67 1110.01 1644.51 1109.78 1642.11C1109.07 1639.71 1108.59 1637.08 1108.12 1634.68C1106.93 1639.23 1105.99 1644.03 1105.27 1648.58C1105.04 1650.02 1104.56 1650.5 1103.14 1650.98C1100.06 1651.7 1097.21 1652.42 1094.37 1653.38C1097.21 1654.34 1100.06 1655.3 1102.9 1655.78C1104.56 1656.02 1105.27 1656.74 1105.51 1658.42C1106.22 1662.97 1107.17 1667.53 1108.12 1672.32C1108.36 1671.6 1108.59 1671.36 1108.59 1671.12C1109.54 1666.57 1110.49 1662.25 1111.2 1657.7C1111.44 1656.5 1111.91 1656.26 1112.86 1656.02C1115.47 1655.06 1118.55 1654.34 1121.63 1653.38Z" fill="#F2DEDE"/>
<path d="M507.477 1604.2C508.177 1604.4 508.791 1604.5 509.492 1604.7C511.416 1605.28 513.431 1605.77 515.356 1606.35C517.718 1607.03 520.081 1607.71 522.444 1608.39C524.544 1608.98 526.731 1609.66 528.922 1610.15C530.761 1610.64 532.685 1611.22 534.61 1611.8C535.834 1612.19 536.692 1613.09 537.192 1614.17C537.607 1615.15 537.493 1616.11 537.203 1617.08C536.428 1619.7 535.738 1622.42 534.963 1625.04C534.088 1628.1 533.213 1631.17 532.423 1634.32C531.739 1636.86 531.054 1639.4 530.283 1641.85C529.408 1644.91 528.624 1647.89 527.748 1650.95C527.163 1653.05 526.488 1655.24 525.989 1657.43C525.404 1659.53 524.819 1661.63 524.143 1663.82C523.758 1665.04 522.854 1665.9 521.696 1666.31C520.715 1666.72 519.748 1666.61 518.786 1666.32C516.685 1665.73 514.585 1665.15 512.484 1664.56C509.859 1663.79 507.144 1663.1 504.519 1662.32C502.681 1661.83 500.756 1661.25 498.917 1660.76C496.993 1660.18 494.978 1659.69 493.054 1659.11C491.829 1658.72 491.057 1657.91 490.561 1656.66C490.147 1655.68 490.261 1654.71 490.551 1653.75C491.041 1651.91 491.53 1650.07 492.02 1648.24C492.505 1646.57 492.99 1644.91 493.385 1643.33C493.675 1642.37 493.88 1641.32 494.26 1640.27C494.94 1637.91 495.625 1635.37 496.305 1633.01C496.89 1630.91 497.475 1628.8 498.06 1626.7C498.74 1624.34 499.425 1621.8 500.105 1619.44C500.69 1617.34 501.275 1615.24 501.86 1613.14C502.445 1611.04 503.03 1608.94 503.615 1606.84C503.91 1605.7 504.724 1604.93 505.881 1604.52C506.238 1604.35 506.858 1604.28 507.477 1604.2ZM533.865 1619.9C524.062 1617.17 514.259 1614.44 504.632 1611.71C501.131 1623.96 497.721 1636.13 494.311 1648.3C504.115 1651.03 513.918 1653.76 523.545 1656.48L533.865 1619.9ZM523.408 1658.33C513.428 1655.59 503.453 1652.68 493.474 1649.95L493.469 1650.13C492.989 1651.61 492.594 1653.19 492.204 1654.59C491.918 1655.38 492.343 1656 493.129 1656.29C494.529 1656.68 495.844 1656.98 497.154 1657.45C499.779 1658.23 502.494 1658.92 505.118 1659.69C507.657 1660.38 510.196 1661.06 512.735 1661.75C515.274 1662.43 517.899 1663.21 520.438 1663.89C521.224 1664.18 521.943 1663.67 522.047 1663.05C522.437 1661.65 522.923 1659.99 523.408 1658.33ZM534.65 1616.92C534.84 1616.4 534.94 1615.96 535.04 1615.52C535.045 1615.34 535.135 1615.26 535.14 1615.08C535.335 1614.38 534.911 1613.75 534.21 1613.56C532.11 1612.97 530.095 1612.48 528.085 1611.81C526.16 1611.23 524.145 1610.73 522.221 1610.15C519.596 1609.38 516.881 1608.69 514.17 1607.82C511.893 1607.23 509.531 1606.55 507.344 1605.88C506.82 1605.69 506.015 1606.11 505.825 1606.63C505.711 1607.6 505.521 1608.12 505.326 1608.82C515.129 1611.55 524.847 1614.19 534.65 1616.92Z" fill="#A5E5D9"/>
<path d="M538.578 1601.86C537.773 1602.28 536.968 1602.7 536.073 1603.2C533.266 1599.34 529.545 1596.68 524.82 1595.32C520.18 1594.05 515.674 1594.37 511.212 1596.37C510.707 1595.47 510.288 1594.67 509.782 1593.77C520.14 1588.93 532.473 1592.7 538.578 1601.86Z" fill="#A5E5D9"/>
<path d="M531.359 1604.75C530.554 1605.17 529.835 1605.68 529.03 1606.1C528.94 1606.19 528.854 1606.1 528.768 1606.01C528.253 1605.46 527.739 1604.92 527.134 1604.46C525.752 1603.37 524.185 1602.62 522.608 1602.23C521.293 1601.93 520.15 1601.81 518.821 1602.04C518.026 1602.1 517.226 1602.35 516.34 1602.5C516.164 1602.5 516.164 1602.5 515.992 1602.32C515.573 1601.51 515.063 1600.79 514.643 1599.99C517.048 1599.08 519.525 1598.79 522.073 1599.13C526.112 1599.76 529.314 1602.05 531.359 1604.75Z" fill="#A5E5D9"/>
<path d="M511.815 1659.87C511.291 1659.68 510.677 1659.58 510.153 1659.39C508.138 1658.89 506.127 1658.22 504.113 1657.73C503.674 1657.63 503.412 1657.53 502.974 1657.43C502.188 1657.15 501.854 1656.43 502.054 1655.56C502.249 1654.86 503.144 1654.35 503.844 1654.55C506.031 1655.22 508.222 1655.72 510.409 1656.4C511.023 1656.5 511.633 1656.78 512.247 1656.89C513.124 1657.09 513.543 1657.89 513.344 1658.77C513.063 1659.38 512.52 1659.89 511.815 1659.87Z" fill="#A5E5D9"/>
<path d="M1205.52 1848.09C1205.12 1845.64 1205.06 1842.94 1204.65 1840.49C1204.69 1839.62 1204.47 1838.83 1204.32 1838.3C1204.89 1837.28 1205.53 1836.53 1205.91 1835.85C1208.07 1830.39 1210.23 1824.92 1212.4 1819.46C1213.29 1817.07 1212.82 1815.91 1210.69 1814.95C1202.06 1811.69 1193.52 1808.25 1184.99 1804.82C1182.76 1804.02 1181.61 1804.49 1180.72 1806.89C1178.56 1812.35 1176.4 1817.82 1174.23 1823.28C1173.93 1824.22 1173.89 1825.09 1173.66 1826.3C1173.4 1826.37 1172.94 1826.79 1172.49 1827.2C1170.32 1829.1 1168.31 1831.09 1166.14 1832.99C1164.8 1833.8 1164.21 1835.25 1164.06 1836.72C1163.94 1837.33 1164.6 1838.14 1165.02 1838.59C1165.26 1838.95 1165.86 1839.07 1166.37 1839.35C1177.64 1843.86 1189 1848.21 1200.44 1852.82C1200.95 1853.1 1201.46 1853.38 1201.99 1853.23C1202.68 1853.18 1203.65 1853.05 1204.03 1852.37C1205.12 1851.2 1205.71 1849.75 1205.52 1848.09ZM1182.1 1807.21C1182.68 1805.76 1182.95 1805.68 1184.23 1806.18C1192.76 1809.61 1201.56 1812.97 1210.1 1816.4C1211.38 1816.89 1211.63 1817.25 1211.04 1818.7C1208.78 1824.34 1206.62 1829.8 1204.36 1835.44C1203.78 1836.89 1203.51 1836.96 1202.06 1836.37C1197.71 1834.61 1193.52 1832.94 1189.08 1831.35C1184.89 1829.68 1180.54 1827.91 1176.36 1826.25C1174.91 1825.66 1174.83 1825.39 1175.42 1823.94L1182.1 1807.21ZM1202.05 1849.93L1184.54 1843.05C1178.91 1840.79 1173.11 1838.44 1167.47 1836.18C1166.02 1835.6 1165.8 1834.8 1167.06 1833.73L1173.41 1827.94C1174.22 1827.28 1175.02 1827.05 1176.13 1827.45C1184.67 1830.88 1193.13 1834.05 1201.66 1837.48C1202.77 1837.88 1203.26 1838.6 1203.3 1839.73C1203.52 1842.52 1203.91 1845.41 1204.13 1848.2C1204.22 1850.03 1203.67 1850.62 1202.05 1849.93Z" fill="#D8D8D8"/>
<path d="M1185.3 1841.69C1183.85 1841.11 1182.23 1840.42 1180.78 1839.83C1179.84 1839.53 1179.86 1839.1 1180.33 1838.25C1182.83 1834.97 1181.51 1835.35 1185.18 1836.73C1187.07 1837.34 1189.02 1838.21 1190.81 1838.99C1191.59 1839.2 1191.83 1839.56 1191.62 1840.33C1191.41 1841.1 1191.37 1841.97 1191.33 1842.84C1191.29 1843.71 1190.77 1843.85 1189.99 1843.65C1188.47 1842.79 1186.85 1842.11 1185.3 1841.69Z" fill="#D8D8D8"/>
<rect x="958.497" y="2431.29" width="210.505" height="616.558" transform="rotate(-113.666 958.497 2431.29)" fill="#F8D513"/>
<rect x="1140.03" y="2165" width="10.7012" height="260.842" transform="rotate(10.6098 1140.03 2165)" fill="#EC443C"/>
<path d="M574 2250.71C574 2254.37 571.313 2257.42 568.09 2257.42C564.687 2257.63 562 2254.58 562 2250.71C562 2247.05 564.687 2244 567.91 2244C571.313 2244 574 2247.05 574 2250.71ZM567.91 2246.44C565.761 2246.44 564.149 2248.27 563.97 2250.71C563.97 2253.15 565.761 2255.19 567.91 2255.19C570.06 2255.19 571.672 2253.36 571.672 2250.92C571.672 2248.47 570.06 2246.44 567.91 2246.44Z" fill="#F2DEDE"/>
<path d="M553 2274.25C553 2275.67 552.289 2276.89 551.044 2277.29C549.444 2277.9 547.844 2278.31 546.244 2278.71C545.533 2278.92 545.356 2279.32 545.178 2280.13C544.644 2282.98 544.289 2286.02 543.756 2288.86C543.4 2290.69 542.511 2291.7 541.089 2291.7C539.667 2291.7 538.778 2290.69 538.422 2288.86C537.889 2285.82 537.356 2282.98 536.822 2279.93C536.644 2279.32 536.467 2278.92 535.933 2278.71C534.333 2278.31 532.733 2277.7 531.133 2277.29C529.711 2276.89 529 2275.67 529 2274.25C529 2272.83 529.889 2271.61 531.133 2271.21C532.733 2270.8 534.156 2270.19 535.756 2269.78C536.467 2269.58 536.644 2269.18 536.822 2268.57C537.356 2265.52 537.889 2262.48 538.422 2259.64C538.778 2258.01 539.667 2257 541.089 2257C542.511 2257 543.4 2257.81 543.756 2259.64C544.289 2262.68 544.822 2265.73 545.356 2268.77C545.533 2269.58 545.711 2269.78 546.422 2269.99C548.022 2270.39 549.444 2270.8 551.044 2271.41C552.111 2271.61 553 2272.63 553 2274.25ZM551.222 2274.25V2274.05C548.911 2273.44 546.6 2272.63 544.289 2272.02C543.578 2271.81 543.222 2271.41 543.222 2270.6C542.867 2268.57 542.511 2266.74 542.333 2264.71C541.8 2262.68 541.444 2260.45 541.089 2258.42C540.2 2262.28 539.489 2266.33 538.956 2270.19C538.778 2271.41 538.422 2271.81 537.356 2272.22C535.044 2272.83 532.911 2273.44 530.778 2274.25C532.911 2275.06 535.044 2275.87 537.178 2276.28C538.422 2276.48 538.956 2277.09 539.133 2278.51C539.667 2282.37 540.378 2286.22 541.089 2290.28C541.267 2289.67 541.444 2289.47 541.444 2289.27C542.156 2285.41 542.867 2281.76 543.4 2277.9C543.578 2276.89 543.933 2276.68 544.644 2276.48C546.6 2275.67 548.911 2275.06 551.222 2274.25Z" fill="#F2DEDE"/>
<path d="M104.056 1985.53C104.103 1985.32 104.149 1985.1 104.149 1985.1C104.333 1984.23 104.736 1983.4 105.527 1982.89L118.067 1974.17L115.059 1970.12C114.716 1969.6 114.419 1968.85 114.821 1968.03C114.96 1967.37 115.751 1966.86 116.233 1966.73L145.951 1959.61C147.132 1959.41 148.175 1959.86 148.689 1960.65C149.375 1961.7 149.316 1963.06 148.696 1963.83L130.095 1987.19C129.785 1987.58 129.257 1987.92 128.604 1987.78C127.951 1987.64 127.515 1987.55 127.172 1987.02L123.478 1981.92L110.581 1991.24C109.48 1992.14 107.738 1991.78 106.834 1990.67L104.558 1987.46C104.215 1986.93 103.918 1986.19 104.056 1985.53ZM121.861 1974.52L106.946 1984.78C106.682 1984.95 106.636 1985.17 106.59 1985.39C106.543 1985.61 106.497 1985.83 106.715 1985.87L108.991 1989.08L123.827 1978.13L128.597 1984.6L146.532 1962.24L117.388 1968.8L121.861 1974.52Z" fill="#F7CCCC"/>
</g>
<defs>
<clipPath id="clip0">
<rect width="1280" height="2884" fill="white"/>
</clipPath>
</defs>
</svg>
